PathFileType	4	(X/Y/Z)	C:\Users\Basilio\Documents\Thesis Gigler\squatting_fais\c3dfiles\076\SLS_back_pre2\markers_experimental.trc
DataRate	CameraRate	NumFrames	NumMarkers	Units	OrigDataRate	OrigDataStartFrame	OrigNumFrames
200.000000	200.000000	4	61	mm	200.000000	973	1947
Frame#	Time	FHD			LBHD			RBHD			C7			T10			CLAV			LSHO			LUUPA			LMUPA			LDUPA			LLEP			LMEP			LRAD			LUL			LRFIN			RSHO			RUPA1			RMUPA			RDUPA			RLEP			RMEP			RRAD			RUL			RUFIN			RASI			USACR			LSACR			RSACR			LTHI1			LTHI2			LTHI3			LTHI4			LLFC			LMFC			LTIB1			LTIB2			LTIB3			LTIB4			LLMAL			LMMAL			LHEE			LMT1			LMT2			LMT5			RTHI			RTHI2			RTHI3			RTHI4			RLFC			RMFC			RTIB1			RTIB2			RTIB3			RTIB4			RLMAL			RMMAL			RHEE			RMT1			RMT2			RMT5			LASI			
		X1	Y1	Z1	X2	Y2	Z2	X3	Y3	Z3	X4	Y4	Z4	X5	Y5	Z5	X6	Y6	Z6	X7	Y7	Z7	X8	Y8	Z8	X9	Y9	Z9	X10	Y10	Z10	X11	Y11	Z11	X12	Y12	Z12	X13	Y13	Z13	X14	Y14	Z14	X15	Y15	Z15	X16	Y16	Z16	X17	Y17	Z17	X18	Y18	Z18	X19	Y19	Z19	X20	Y20	Z20	X21	Y21	Z21	X22	Y22	Z22	X23	Y23	Z23	X24	Y24	Z24	X25	Y25	Z25	X26	Y26	Z26	X27	Y27	Z27	X28	Y28	Z28	X29	Y29	Z29	X30	Y30	Z30	X31	Y31	Z31	X32	Y32	Z32	X33	Y33	Z33	X34	Y34	Z34	X35	Y35	Z35	X36	Y36	Z36	X37	Y37	Z37	X38	Y38	Z38	X39	Y39	Z39	X40	Y40	Z40	X41	Y41	Z41	X42	Y42	Z42	X43	Y43	Z43	X44	Y44	Z44	X45	Y45	Z45	X46	Y46	Z46	X47	Y47	Z47	X48	Y48	Z48	X49	Y49	Z49	X50	Y50	Z50	X51	Y51	Z51	X52	Y52	Z52	X53	Y53	Z53	X54	Y54	Z54	X55	Y55	Z55	X56	Y56	Z56	X57	Y57	Z57	X58	Y58	Z58	X59	Y59	Z59	X60	Y60	Z60	X61	Y61	Z61	

974	4.865	-128.4135894775391	1450.177124023438	-1026.304321289063	-272.0626525878907	1387.28271484375	-1123.14794921875	-257.7678527832032	1392.921142578125	-971.435241699219	-327.0242004394532	1294.223754882813	-1038.937255859375	-471.6833496093751	1017.829833984375	-1019.987609863281	-221.1319580078126	1186.403564453125	-1046.49951171875	-274.7168579101563	1238.905029296875	-1198.71337890625	-146.8552398681641	1176.5634765625	-1289.85400390625	-109.0370635986328	1188.81787109375	-1259.653076171875	-83.89070129394533	1163.189453125	-1309.846557617188	-36.12574005126954	1138.186157226563	-1325.922119140625	-32.82046127319337	1075.760375976563	-1274.875366210938	212.9593811035157	1140.975341796875	-1289.682006835938	208.1299591064454	1141.019897460938	-1355.294189453125	295.2647705078126	1154.896850585938	-1296.052856445313	-250.5529022216797	1237.585571289063	-895.0494384765627	-125.3847808837891	1164.566650390625	-806.2866821289065	-91.27651214599611	1193.935791015625	-826.466247558594	-57.23379135131837	1147.939086914063	-802.7628173828127	9.472825050354006	1144.352661132813	-804.9917602539065	6.107470512390138	1095.081420898438	-863.7771606445315	251.6138763427735	1129.818969726563	-859.8919677734377	244.6174926757813	1125.379516601563	-793.8584594726565	326.9421691894532	1140.4765625	-850.575378417969	-379.6269226074219	790.1994628906252	-910.3123779296877	-517.9363403320314	914.7213134765627	-1010.346313476563	-537.9148559570314	891.5640258789065	-1038.608276367188	-535.4387817382814	887.939636230469	-981.4580688476565	-421.8833007812501	688.4522094726564	-1199.116577148438	-351.4910278320313	641.8160400390626	-1198.552612304688	-312.9939880371094	669.1325073242189	-1182.096313476563	-344.4003295898438	580.9921875000001	-1187.574096679688	-255.0647125244141	453.2012329101564	-1156.035278320313	-233.7500152587891	468.3535156250001	-1045.583129882813	-242.2244262695313	322.7121276855469	-1059.808715820313	-280.1872863769532	263.6402893066407	-1113.875854492188	-250.7512664794922	267.3195495605469	-1076.541259765625	-290.4646911621094	209.6069030761719	-1029.94921875	-383.0601196289063	105.1370391845703	-1061.419311523438	-350.6345214843751	123.2733993530274	-983.8332519531252	-442.2456054687501	96.03723144531253	-1007.873718261719	-240.9054107666016	55.13779067993165	-993.1965942382815	-235.8675994873047	50.50180816650392	-1032.278442382813	-260.2416992187501	43.40531158447266	-1081.326904296875	-450.3676147460939	558.9091186523439	-840.9616699218752	-406.9273376464845	505.647918701172	-842.377624511719	-374.4575195312501	508.9310302734376	-852.7889404296877	-433.6510314941407	427.118621826172	-859.0310668945315	-436.203826904297	386.4282226562501	-869.852722167969	-421.3054809570314	378.3437194824219	-983.7134399414065	-539.3315429687501	317.4791259765626	-907.192565917969	-627.6586303710939	379.8630065917969	-893.1941528320315	-624.6572875976564	334.4659423828126	-904.5528564453127	-663.1422729492189	319.6976013183594	-947.0989379882815	-808.918640136719	365.3432006835938	-933.3511962890627	-778.922790527344	350.2442626953126	-1012.732055664063	-823.824645996094	426.8602600097657	-976.4473876953127	-839.4238281250002	228.1089019775391	-1026.360717773438	-846.6443481445315	215.1044464111329	-982.3357543945315	-876.5640258789065	238.7925415039063	-932.4726562500002	-380.6569519042969	806.8618774414065	-1123.338256835938	
975	4.87	-127.8670501708985	1449.0830078125	-1026.4541015625	-271.7667236328126	1385.947509765625	-1123.295532226563	-257.3821411132813	1391.885009765625	-971.505554199219	-326.6747131347657	1293.282836914063	-1039.00341796875	-471.6567993164064	1017.048583984375	-1019.962036132813	-220.7488861083985	1185.306396484375	-1046.58642578125	-274.5357666015626	1238.026489257813	-1198.880249023438	-146.3451232910157	1175.701049804688	-1289.918090820313	-108.5821762084961	1187.90478515625	-1259.657470703125	-84.04631805419923	1161.631591796875	-1309.367797851563	-35.72978591918946	1137.197021484375	-1325.896240234375	-32.49301910400391	1074.87451171875	-1275.417114257813	213.322250366211	1140.31396484375	-1289.609741210938	208.4664306640626	1140.040405273438	-1355.247680664063	295.7220764160157	1154.227661132813	-1296.223388671875	-250.2384033203126	1236.492309570313	-895.315856933594	-125.0269470214844	1163.6923828125	-806.5404052734377	-90.77524566650392	1192.898193359375	-826.6934814453127	-56.87446975708009	1146.973999023438	-802.8880004882815	9.851244926452638	1143.287231445313	-804.9880371093752	6.600437164306642	1093.791870117188	-864.073669433594	251.837631225586	1128.353637695313	-860.0298461914065	244.9344940185547	1124.441528320313	-794.0814208984377	327.3015441894532	1139.302978515625	-850.7640380859377	-379.8272705078126	789.3143310546877	-910.344665527344	-518.4732055664064	914.1303710937502	-1010.021667480469	-537.5969848632814	890.5443115234377	-1038.760375976563	-535.5802001953126	887.3499755859377	-981.293151855469	-422.2444763183595	688.0476074218751	-1199.1748046875	-351.7217407226563	641.4642333984376	-1198.759033203125	-313.2588195800782	668.9080200195314	-1182.210083007813	-344.6871643066407	580.8312988281251	-1187.888305664063	-254.9555664062501	453.055633544922	-1156.440673828125	-233.4604949951172	468.079803466797	-1046.042724609375	-242.0041656494141	322.4788208007813	-1060.155639648438	-280.1115112304688	263.5106201171876	-1114.081298828125	-250.6619415283204	267.2037048339844	-1076.81982421875	-290.3621215820313	209.4871978759766	-1030.287841796875	-383.1162109375001	105.0099105834961	-1061.563110351563	-350.6535644531251	123.2850189208985	-984.0083007812502	-442.2452697753907	96.08475494384768	-1007.9228515625	-240.8462982177735	55.24989318847658	-993.243103027344	-235.8359527587891	50.50604629516603	-1032.30078125	-260.2683410644532	43.37168884277344	-1081.386840820313	-450.8190002441407	558.1086425781251	-841.0653076171877	-407.4334106445314	504.786834716797	-842.4642333984377	-374.8822021484376	508.1245117187501	-852.933044433594	-434.264617919922	426.3287658691407	-859.1936645507815	-436.8993530273439	385.5599060058595	-870.003601074219	-422.3943481445314	377.4131164550782	-984.0352172851565	-540.1633911132814	316.4829406738282	-907.0827636718752	-628.4021606445314	378.8811645507813	-893.2070312500002	-625.5471801757814	333.4381408691407	-904.6831054687502	-664.0574340820314	318.8407287597657	-947.1630859375002	-809.7192382812502	364.6271972656251	-933.2501220703127	-779.7126464843752	349.3510437011719	-1012.549682617188	-824.6253051757815	425.9898681640626	-976.3106689453127	-840.2930908203127	227.316635131836	-1026.308471679688	-847.327331542969	214.4783325195313	-981.8140869140627	-877.4218750000002	237.874984741211	-932.5633544921877	-381.1033020019532	806.0996704101565	-1123.395385742188	
976	4.875	-127.4287643432617	1447.974975585938	-1026.61474609375	-271.2162780761719	1384.957275390625	-1123.441650390625	-257.0055847167969	1390.789428710938	-971.574401855469	-326.3042297363282	1292.368041992188	-1039.129150390625	-471.6747131347657	1016.235595703125	-1019.881286621094	-220.6918182373047	1184.440307617188	-1046.777709960938	-274.2159423828126	1237.040771484375	-1198.8984375	-146.1078033447266	1174.861206054688	-1290.041259765625	-108.2472152709961	1187.041748046875	-1259.685302734375	-83.41590881347658	1161.179565429688	-1309.836059570313	-35.37907409667969	1136.46240234375	-1326.031494140625	-32.16799926757813	1073.999145507813	-1275.703002929688	213.514144897461	1139.275512695313	-1289.687255859375	208.8697967529297	1139.266235351563	-1355.197265625	295.8167114257813	1153.323486328125	-1295.93212890625	-249.8668518066407	1235.673828125	-895.402526855469	-124.7287063598633	1162.717895507813	-806.6518554687502	-90.42038726806642	1191.911743164063	-826.8221435546877	-56.477596282959	1146.149658203125	-803.0386352539065	10.21981430053711	1142.49267578125	-804.8416748046877	6.894406795501711	1092.951782226563	-864.2686767578127	251.8836364746094	1126.608154296875	-859.775085449219	245.2790985107422	1123.469360351563	-794.1010742187502	327.4449157714844	1138.082397460938	-851.1445312500002	-380.0607604980469	788.5109863281252	-910.4235839843752	-518.6699829101564	913.5264892578127	-1010.019714355469	-537.7987060546876	890.0136718750002	-1038.697021484375	-535.7924804687501	886.5672607421877	-981.2183227539065	-422.5128173828126	687.6074218750001	-1199.28369140625	-351.9450683593751	641.0746459960939	-1199.035278320313	-313.5107116699219	668.7199707031251	-1182.3564453125	-344.8643188476563	580.4039916992189	-1188.173583984375	-254.7947692871094	452.8909912109376	-1156.883666992188	-233.2359161376954	467.8364562988282	-1046.3720703125	-241.7730865478516	322.3445739746094	-1060.480346679688	-279.9808654785157	263.4170837402344	-1114.239013671875	-250.5820922851563	267.0740356445313	-1077.094482421875	-290.2763671875001	209.4388732910157	-1030.542602539063	-383.1157836914063	104.7753295898438	-1061.636596679688	-350.6108703613282	123.3363494873047	-984.1233520507815	-442.2085571289064	96.06176757812503	-1007.919128417969	-240.8392181396485	55.36774826049806	-993.259704589844	-235.8723754882813	50.53310775756837	-1032.329345703125	-260.3002929687501	43.34422302246094	-1081.388793945313	-451.188934326172	557.4567260742189	-841.1530761718752	-407.8421020507814	503.9575195312501	-842.6267700195315	-375.3890686035157	507.1696166992189	-853.1972656250002	-434.8962707519532	425.3960876464845	-859.3613891601565	-437.6074218750001	384.633270263672	-870.1763916015627	-423.1103820800782	376.6178894042969	-984.2485351562502	-540.9148559570314	315.7604370117188	-907.1704711914065	-629.0941772460939	378.0950927734376	-893.1654052734377	-626.2991943359376	332.7293701171876	-904.7570800781252	-664.8801879882814	318.0307922363282	-947.1268310546877	-810.5183105468752	363.8669128417969	-933.1428222656252	-780.3941650390627	348.6146240234376	-1012.442077636719	-825.4497680664065	425.2444763183595	-976.2354125976565	-840.9885253906252	226.5136108398438	-1026.175659179688	-848.0483398437502	213.7844848632813	-981.6948852539065	-878.305358886719	237.0573425292969	-932.4501953125002	-381.5003967285157	805.3792114257815	-1123.303100585938	
977	4.88	-127.2220916748047	1447.049072265625	-1026.814819335938	-270.3153686523438	1385.0107421875	-1123.159301757813	-256.6616821289063	1389.801147460938	-971.756530761719	-325.9607238769532	1291.407348632813	-1039.210205078125	-471.5988769531251	1015.579895019531	-1019.868103027344	-220.6741638183594	1183.38818359375	-1046.96630859375	-273.8808898925782	1236.169799804688	-1199.044189453125	-145.863525390625	1174.0263671875	-1290.143676757813	-108.1856918334961	1186.1943359375	-1259.947143554688	-83.11620330810548	1160.308959960938	-1309.916015625	-35.94252014160157	1135.929809570313	-1326.322265625	-31.74456214904786	1073.130981445313	-1275.435668945313	213.925033569336	1138.571655273438	-1289.575317382813	209.1492767333985	1138.444580078125	-1355.216430664063	296.0044860839844	1152.6162109375	-1295.78271484375	-249.4463806152344	1234.640747070313	-895.611267089844	-124.4340057373047	1161.741821289063	-806.8010864257815	-90.11933898925783	1191.083862304688	-826.9385375976565	-56.10801315307619	1145.326293945313	-803.2100219726565	10.45647048950195	1141.471801757813	-805.0796508789065	7.101597785949709	1092.296997070313	-864.0945434570315	252.7527313232422	1126.431518554688	-860.3482055664065	245.6828918457032	1122.504028320313	-794.2898559570315	327.9192504882813	1137.527709960938	-851.1781005859377	-380.2430419921876	787.7354125976565	-910.434509277344	-518.8945312500001	912.6926879882815	-1009.877990722656	-537.9470214843751	889.2674560546877	-1038.588745117188	-535.9054565429689	885.9766845703127	-981.1136474609377	-422.9869689941407	686.9516601562501	-1199.513061523438	-352.2538146972657	640.7852783203126	-1199.231689453125	-313.8426818847657	668.4255981445314	-1182.494750976563	-344.9917907714844	580.1668090820314	-1188.387329101563	-254.5057525634766	452.6634521484376	-1157.300048828125	-232.8815612792969	467.6422424316407	-1046.776733398438	-241.5555572509766	322.1835937500001	-1060.870483398438	-279.9726562500001	263.1770019531251	-1114.552856445313	-250.4837188720704	266.8754882812501	-1077.349731445313	-290.2017517089844	209.2899475097657	-1030.775390625	-383.0855407714844	104.6114730834961	-1061.760986328125	-350.5898437500001	123.3524246215821	-984.2551269531252	-442.2296752929689	96.06665802001956	-1007.933898925781	-240.830307006836	55.45269012451173	-993.3027954101565	-235.8399200439454	50.50738525390626	-1032.41748046875	-260.2051696777344	43.2221908569336	-1081.427978515625	-451.6024475097657	556.6472778320314	-841.2637329101565	-408.5121459960939	502.9243774414064	-842.8984375000002	-375.9365539550782	506.3104858398439	-853.3532714843752	-435.4800415039064	424.559295654297	-859.5144042968752	-438.3581542968751	383.8338623046876	-870.304626464844	-425.0919799804689	376.1777038574219	-984.9853515625002	-541.7070312500001	314.8666076660157	-907.4480590820315	-629.8399047851564	377.3191833496094	-893.2252197265627	-626.9659423828126	331.9354248046876	-904.7579345703127	-665.5339355468751	317.2463684082032	-947.0496826171877	-811.2435302734377	363.1119995117188	-932.9548950195315	-781.263610839844	347.8165283203126	-1012.304382324219	-826.2300415039065	424.5014038085939	-976.1194458007815	-841.8074951171877	225.8162384033204	-1026.04443359375	-849.016052246094	212.8777618408204	-981.7946777343752	-878.920837402344	236.4435577392579	-932.1318969726565	-381.5413818359376	804.4583740234377	-1123.320434570313	
